<?xml version="1.0" encoding="UTF-8" standalone="no"?>
<!-- Created with Inkscape (http://www.inkscape.org/) -->

<svg
   width="256"
   height="256"
   viewBox="0 0 67.733332 67.733335"
   version="1.1"
   id="svg5"
   inkscape:version="1.1.2 (0a00cf5339, 2022-02-04)"
   sodipodi:docname="logo.svg"
   inkscape:export-filename="/home/alireza/prj/2024-website/image/logo.png"
   inkscape:export-xdpi="299.87195"
   inkscape:export-ydpi="299.87195"
   xmlns:inkscape="http://www.inkscape.org/namespaces/inkscape"
   xmlns:sodipodi="http://sodipodi.sourceforge.net/DTD/sodipodi-0.dtd"
   xmlns:xlink="http://www.w3.org/1999/xlink"
   xmlns="http://www.w3.org/2000/svg"
   xmlns:svg="http://www.w3.org/2000/svg">
  <sodipodi:namedview
     id="namedview7"
     pagecolor="#505050"
     bordercolor="#eeeeee"
     borderopacity="1"
     inkscape:pageshadow="0"
     inkscape:pageopacity="0"
     inkscape:pagecheckerboard="0"
     inkscape:document-units="mm"
     showgrid="false"
     units="px"
     width="256px"
     showguides="true"
     inkscape:guide-bbox="true"
     inkscape:zoom="1.5554293"
     inkscape:cx="139.18987"
     inkscape:cy="126.33168"
     inkscape:window-width="2490"
     inkscape:window-height="1376"
     inkscape:window-x="70"
     inkscape:window-y="27"
     inkscape:window-maximized="1"
     inkscape:current-layer="layer1" />
  <defs
     id="defs2">
    <linearGradient
       inkscape:collect="always"
       id="linearGradient3820">
      <stop
         style="stop-color:#041a49;stop-opacity:1"
         offset="0"
         id="stop3816" />
      <stop
         style="stop-color:#043964;stop-opacity:0.84695399"
         offset="1"
         id="stop3818" />
    </linearGradient>
    <radialGradient
       inkscape:collect="always"
       xlink:href="#linearGradient3820"
       id="radialGradient3826"
       cx="128.08301"
       cy="133.7634"
       fx="128.08301"
       fy="133.7634"
       r="124.69323"
       gradientTransform="matrix(0.61580737,0.22297591,-0.23135487,0.6389481,80.15536,19.736099)"
       gradientUnits="userSpaceOnUse" />
  </defs>
  <g
     inkscape:label="Layer 1"
     inkscape:groupmode="layer"
     id="layer1">
    <path
       id="path1866-3"
       style="color:#000000;fill:url(#radialGradient3826);stroke-width:3.77953;stroke-linecap:round;-inkscape-stroke:none;fill-opacity:1"
       d="M 106.96484 15.962891 A 7.7109921 7.7109921 0 0 0 105.76758 16.144531 A 7.7109921 7.7109921 0 0 0 100.96875 19.576172 L 88.066406 40.275391 L 67.367188 27.371094 A 7.7109921 7.7109921 0 0 0 56.744141 29.837891 A 7.7109921 7.7109921 0 0 0 59.210938 40.460938 L 83.748047 55.755859 L 90.273438 83.910156 A 7.7109921 7.7109921 0 0 0 99.529297 89.675781 A 7.7109921 7.7109921 0 0 0 105.29492 80.425781 L 98.761719 52.263672 L 114.05664 27.734375 A 7.7109921 7.7109921 0 0 0 111.5918 17.111328 A 7.7109921 7.7109921 0 0 0 106.96484 15.962891 z M 187.88477 22.322266 A 7.7109921 7.7109921 0 0 0 179.91797 29.763672 L 178.94531 58.648438 L 157.81836 78.396484 A 7.7109921 7.7109921 0 0 0 157.44922 89.291016 A 7.7109921 7.7109921 0 0 0 168.35156 89.660156 L 189.4707 69.921875 L 218.35547 70.902344 A 7.7109921 7.7109921 0 0 0 226.32812 63.455078 A 7.7109921 7.7109921 0 0 0 218.88086 55.490234 L 194.50586 54.662109 L 195.33203 30.287109 A 7.7109921 7.7109921 0 0 0 187.88477 22.322266 z M 124.64453 84.087891 L 88.177734 105.14062 L 84.324219 111.82031 L 84.324219 153.91992 L 88.177734 160.59961 L 124.64453 181.65234 L 132.35547 181.65234 L 168.81641 160.59961 L 172.67188 153.91992 L 172.67188 111.82031 L 168.81641 105.14062 L 132.35547 84.087891 L 124.64453 84.087891 z M 24.179688 87.210938 A 7.7109921 7.7109921 0 0 0 20.699219 88.117188 A 7.7109921 7.7109921 0 0 0 17.517578 98.548828 L 28.996094 120.06641 L 7.4707031 131.54492 A 7.7109921 7.7109921 0 0 0 4.296875 141.97656 A 7.7109921 7.7109921 0 0 0 14.726562 145.1582 L 40.238281 131.55273 L 67.890625 139.97461 A 7.7109921 7.7109921 0 0 0 77.509766 134.8457 A 7.7109921 7.7109921 0 0 0 72.378906 125.22656 L 44.726562 116.80273 L 31.128906 91.291016 A 7.7109921 7.7109921 0 0 0 26.568359 87.541016 A 7.7109921 7.7109921 0 0 0 24.179688 87.210938 z M 128.49805 99.669922 L 157.24805 116.26953 L 157.24805 149.47461 L 128.49805 166.07031 L 99.746094 149.4707 L 99.746094 116.26953 L 128.49805 99.669922 z M 244.92578 121.00195 A 7.7109921 7.7109921 0 0 0 241.43945 121.9043 L 215.92773 135.50977 L 188.27539 127.08594 A 7.7109921 7.7109921 0 0 0 178.65625 132.2168 A 7.7109921 7.7109921 0 0 0 183.78711 141.83594 L 211.43945 150.25781 L 225.03711 175.76953 A 7.7109921 7.7109921 0 0 0 235.4668 178.94531 A 7.7109921 7.7109921 0 0 0 238.64258 168.51367 L 227.16992 146.99609 L 248.69531 135.51758 A 7.7109921 7.7109921 0 0 0 251.86914 125.08594 A 7.7109921 7.7109921 0 0 0 247.31641 121.33594 A 7.7109921 7.7109921 0 0 0 244.92578 121.00195 z M 94.621094 174.85547 A 7.7109921 7.7109921 0 0 0 89.091797 176.92969 L 67.972656 196.66016 L 39.087891 195.68555 A 7.7109921 7.7109921 0 0 0 31.115234 203.13477 A 7.7109921 7.7109921 0 0 0 38.5625 211.09961 L 62.9375 211.92578 L 62.111328 236.30078 A 7.7109921 7.7109921 0 0 0 69.558594 244.26758 A 7.7109921 7.7109921 0 0 0 77.525391 236.82617 L 78.498047 207.94141 L 99.626953 188.19336 A 7.7109921 7.7109921 0 0 0 99.994141 177.29883 A 7.7109921 7.7109921 0 0 0 94.621094 174.85547 z M 158.02539 177.66406 A 7.7109921 7.7109921 0 0 0 156.82812 177.84375 A 7.7109921 7.7109921 0 0 0 151.0625 187.10156 L 157.5957 215.26367 L 142.30078 239.79297 A 7.7109921 7.7109921 0 0 0 144.76562 250.41602 A 7.7109921 7.7109921 0 0 0 155.38867 247.95117 L 168.29297 227.24414 L 188.99023 240.1543 A 7.7109921 7.7109921 0 0 0 199.61328 237.68945 A 7.7109921 7.7109921 0 0 0 197.14844 227.06641 L 172.61719 211.7793 L 166.08594 183.61719 A 7.7109921 7.7109921 0 0 0 158.02539 177.66406 z "
       transform="scale(0.26458333)" />
  </g>
</svg>
